<svg width="40" height="40" viewBox="0 0 40 40" fill="none" xmlns="http://www.w3.org/2000/svg">
<path d="M15 20.5C15.0098 20.8354 15.1371 21.1229 15.4016 21.3816L23.0215 28.6742C23.2468 28.885 23.5113 29 23.8345 29C24.4907 29 25 28.5017 25 27.8596C25 27.553 24.8727 27.2655 24.6474 27.0451L17.7914 20.5L24.6474 13.9549C24.8727 13.7345 25 13.4566 25 13.1404C25 12.4983 24.4907 12 23.8345 12C23.5211 12 23.2468 12.115 23.0215 12.3258L15.4016 19.628C15.1273 19.8771 15 20.1646 15 20.5Z" fill="#33393C"/>
<path d="M15 20.5C15.0098 20.8354 15.1371 21.1229 15.4016 21.3816L23.0215 28.6742C23.2468 28.885 23.5113 29 23.8345 29C24.4907 29 25 28.5017 25 27.8596C25 27.553 24.8727 27.2655 24.6474 27.0451L17.7914 20.5L24.6474 13.9549C24.8727 13.7345 25 13.4566 25 13.1404C25 12.4983 24.4907 12 23.8345 12C23.5211 12 23.2468 12.115 23.0215 12.3258L15.4016 19.628C15.1273 19.8771 15 20.1646 15 20.5Z" stroke="#E0E0E0"/>
<rect x="0.5" y="0.5" width="39" height="39" rx="11.5" stroke="#E0E0E0"/>
</svg>
