<svg width="18" height="20" viewBox="0 0 18 20" fill="none" xmlns="http://www.w3.org/2000/svg">
<path d="M8.99987 -0.00390625C13.0498 -0.00390625 16.3565 3.19084 16.4957 7.24515L16.4999 7.49609V11.5931L17.8799 14.7491C17.9489 14.907 17.9846 15.0775 17.9846 15.2499C17.9846 15.9402 17.4249 16.4999 16.7346 16.4999L11.9999 16.5014C11.9999 18.1582 10.6567 19.5014 8.99987 19.5014C7.40219 19.5014 6.09621 18.2524 6.00496 16.6776L5.99941 16.4991L1.27473 16.4999C1.10339 16.4999 0.933883 16.4646 0.77673 16.3964C0.143528 16.1213 -0.146821 15.3851 0.128218 14.7519L1.49987 11.594V7.49599C1.50046 3.3412 4.85195 -0.00390625 8.99987 -0.00390625ZM10.4994 16.4991L7.49987 16.5014C7.49987 17.3298 8.17144 18.0014 8.99987 18.0014C9.77956 18.0014 10.4203 17.4065 10.493 16.6458L10.4994 16.4991ZM8.99987 1.49609C5.67971 1.49609 3.00034 4.17035 2.99987 7.49609V11.9057L1.65589 14.9999H16.3524L14.9999 11.9067L15 7.50895L14.9962 7.28375C14.8852 4.05027 12.2414 1.49609 8.99987 1.49609Z" fill="#1D2734"/>
</svg>
