<svg width="13" height="13" viewBox="0 0 13 13" fill="none" xmlns="http://www.w3.org/2000/svg">
<path d="M2.16659 2.16683H3.79158L4.87492 1.0835H8.12492L9.20825 2.16683H10.8333C11.1206 2.16683 11.3961 2.28097 11.5993 2.48413C11.8024 2.68729 11.9166 2.96284 11.9166 3.25016V9.75016C11.9166 10.0375 11.8024 10.313 11.5993 10.5162C11.3961 10.7194 11.1206 10.8335 10.8333 10.8335H2.16659C1.87927 10.8335 1.60372 10.7194 1.40055 10.5162C1.19739 10.313 1.08325 10.0375 1.08325 9.75016V3.25016C1.08325 2.96284 1.19739 2.68729 1.40055 2.48413C1.60372 2.28097 1.87927 2.16683 2.16659 2.16683ZM6.49992 3.79183C5.78162 3.79183 5.09275 4.07717 4.58484 4.58508C4.07693 5.09299 3.79159 5.78187 3.79158 6.50016C3.79159 7.21846 4.07693 7.90733 4.58484 8.41524C5.09275 8.92315 5.78162 9.2085 6.49992 9.2085C7.21821 9.2085 7.90709 8.92315 8.415 8.41524C8.92291 7.90733 9.20825 7.21846 9.20825 6.50016C9.20825 5.78187 8.92291 5.09299 8.415 4.58508C7.90709 4.07717 7.21821 3.79183 6.49992 3.79183ZM6.49992 4.87516C6.93089 4.87516 7.34422 5.04637 7.64897 5.35111C7.95371 5.65586 8.12492 6.06919 8.12492 6.50016C8.12492 6.93114 7.95371 7.34447 7.64897 7.64921C7.34422 7.95396 6.93089 8.12516 6.49992 8.12516C6.06894 8.12516 5.65562 7.95396 5.35087 7.64921C5.04612 7.34447 4.87492 6.93114 4.87492 6.50016C4.87492 6.06919 5.04612 5.65586 5.35087 5.35111C5.65562 5.04637 6.06894 4.87516 6.49992 4.87516Z" fill="white"/>
</svg>
