<svg width="24" height="24" viewBox="0 0 24 24" fill="none" xmlns="http://www.w3.org/2000/svg">
<path d="M3 3L21 21" stroke="url(#paint0_linear_643_3122)" stroke-width="1.5" stroke-linecap="round" stroke-linejoin="round"/>
<path d="M10.5845 10.5869C10.2092 10.9619 9.99823 11.4707 9.99805 12.0012C9.99786 12.5317 10.2084 13.0406 10.5835 13.4159C10.9585 13.7912 11.4672 14.0021 11.9977 14.0023C12.5283 14.0025 13.0372 13.7919 13.4125 13.4169" stroke="url(#paint1_linear_643_3122)" stroke-width="1.5" stroke-linecap="round" stroke-linejoin="round"/>
<path d="M9.363 5.36506C10.2204 5.11978 11.1082 4.9969 12 5.00006C16 5.00006 19.333 7.33306 22 12.0001C21.222 13.3611 20.388 14.5241 19.497 15.4881M17.357 17.3491C15.726 18.4491 13.942 19.0001 12 19.0001C8 19.0001 4.667 16.6671 2 12.0001C3.369 9.60506 4.913 7.82506 6.632 6.65906" stroke="url(#paint2_linear_643_3122)" stroke-width="1.5" stroke-linecap="round" stroke-linejoin="round"/>
<defs>
<linearGradient id="paint0_linear_643_3122" x1="19.9794" y1="3.86301" x2="-0.201647" y2="15.3991" gradientUnits="userSpaceOnUse">
<stop stop-color="#123577"/>
<stop offset="1" stop-color="#518EE3"/>
</linearGradient>
<linearGradient id="paint1_linear_643_3122" x1="13.2189" y1="10.7507" x2="9.39018" y2="12.9386" gradientUnits="userSpaceOnUse">
<stop stop-color="#123577"/>
<stop offset="1" stop-color="#518EE3"/>
</linearGradient>
<linearGradient id="paint2_linear_643_3122" x1="20.866" y1="5.67124" x2="3.01771" y2="20.2463" gradientUnits="userSpaceOnUse">
<stop stop-color="#123577"/>
<stop offset="1" stop-color="#518EE3"/>
</linearGradient>
</defs>
</svg>
