<svg width="25" height="25" viewBox="0 0 25 25" fill="none" xmlns="http://www.w3.org/2000/svg">
<path fill-rule="evenodd" clip-rule="evenodd" d="M7.91078 7.34254C8.76603 6.76187 9.63136 6.38888 10.634 6.10595C11.3447 5.92548 12.0758 5.83534 12.8098 5.83795L12.8125 5.83795C16.3512 5.83795 19.4014 7.82025 21.9441 12.0879C21.2529 13.2476 20.5238 14.2391 19.7587 15.0669C19.7149 15.1143 19.6783 15.1659 19.649 15.2202C19.078 15.8327 18.5103 16.2996 17.8384 16.7639C17.8082 16.7788 17.7787 16.7958 17.7501 16.8152C16.2409 17.833 14.6025 18.3379 12.8125 18.3379C9.2738 18.3379 6.22359 16.3557 3.68081 12.088C4.95345 9.95311 6.35339 8.39329 7.86549 7.36763C7.87983 7.3579 7.89373 7.34777 7.90719 7.33724L7.91078 7.34254ZM23.4636 12.4602C22.7628 13.6861 22.0118 14.7667 21.2076 15.6964L21.2196 15.7064C20.3628 16.7304 19.5501 17.4154 18.5656 18.0839L18.5612 18.0773C16.8158 19.2471 14.8954 19.8379 12.8125 19.8379C8.45247 19.8379 4.90963 17.2694 2.1613 12.4601C2.02952 12.2295 2.02954 11.9464 2.16134 11.7158C3.56934 9.25254 5.18409 7.37392 7.02347 6.12627C7.04709 6.11024 7.07131 6.09574 7.09599 6.08275C7.99011 5.47985 8.89056 5.07329 9.8686 4.7685C9.90077 4.75413 9.93434 4.74185 9.9692 4.73187C10.8941 4.46728 11.8518 4.33467 12.8138 4.33795C17.1732 4.33847 20.7156 6.90701 23.4637 11.7158C23.5954 11.9464 23.5954 12.2296 23.4636 12.4602ZM11.8741 11.2617C11.6727 11.4894 11.5606 11.7836 11.5605 12.0894C11.5604 12.421 11.692 12.7391 11.9264 12.9737C12.1609 13.2082 12.4789 13.3401 12.8105 13.3402C13.1421 13.3403 13.4602 13.2087 13.6948 12.9743C13.7148 12.9543 13.7356 12.9357 13.7571 12.9185C13.9585 12.6907 14.0705 12.3966 14.0707 12.0908C14.0708 11.7592 13.9391 11.4411 13.7047 11.2065C13.4703 10.9719 13.1523 10.8401 12.8207 10.84C12.4891 10.8398 12.171 10.9715 11.9364 11.2059C11.9164 11.2258 11.8956 11.2444 11.8741 11.2617ZM14.6742 14.1129C14.1672 14.5799 13.502 14.8405 12.81 14.8402C12.0805 14.84 11.381 14.5499 10.8654 14.0339C10.3498 13.518 10.0603 12.8183 10.0605 12.0888C10.0608 11.3594 10.3508 10.6599 10.8668 10.1443C10.8953 10.1158 10.9254 10.0902 10.957 10.0672C11.464 9.60028 12.1292 9.33972 12.8212 9.33997C13.5507 9.34022 14.2501 9.63024 14.7658 10.1462C15.2814 10.6622 15.5709 11.3619 15.5707 12.0913C15.5704 12.8208 15.2804 13.5203 14.7644 14.0359C14.7359 14.0643 14.7057 14.09 14.6742 14.1129Z" fill="url(#paint0_linear_32_5603)"/>
<defs>
<linearGradient id="paint0_linear_32_5603" x1="22.3434" y1="5.08104" x2="2.70699" y2="20.6508" gradientUnits="userSpaceOnUse">
<stop stop-color="#123577"/>
<stop offset="1" stop-color="#518EE3"/>
</linearGradient>
</defs>
</svg>
