<svg width="40" height="40" viewBox="0 0 40 40" fill="none" xmlns="http://www.w3.org/2000/svg">
<g clip-path="url(#clip0_463_5191)">
<path d="M13.3 26.85C13.3 27.6333 12.6166 28.2833 11.8166 28.2833H10.4333V25.4167H11.8333C12.6333 25.4167 13.3166 26.0667 13.3166 26.85H13.3ZM25 13.3333H35.9C35.3166 11.8167 34.4333 10.4167 33.25 9.23333L27.45 3.41667C26.2666 2.23333 24.8666 1.35 23.35 0.766667V11.6667C23.35 12.5833 24.1 13.3333 25.0166 13.3333H25ZM20.15 25.4167H18.75V31.25H20.15C20.95 31.25 21.6333 30.6 21.6333 29.8167V26.85C21.6333 26.0667 20.95 25.4167 20.15 25.4167ZM36.6666 17.4833V31.6667C36.6666 36.2667 32.9333 40 28.3333 40H11.6666C7.06665 40 3.33331 36.2667 3.33331 31.6667V8.33333C3.33331 3.73333 7.06665 0 11.6666 0H19.1833C19.45 0 19.7166 0.0166667 20 0.0333333V11.6667C20 14.4167 22.25 16.6667 25 16.6667H36.6333C36.65 16.9333 36.6666 17.2 36.6666 17.4833ZM15.3833 26.85C15.3833 24.9167 13.7833 23.3333 11.8166 23.3333H9.99998C9.08331 23.3333 8.33331 24.0833 8.33331 25V32.4C8.33331 32.9833 8.79998 33.4333 9.36665 33.4333C9.93331 33.4333 10.4 32.9667 10.4 32.4V30.3667H11.8C13.7666 30.3667 15.3666 28.7833 15.3666 26.85H15.3833ZM23.7166 26.85C23.7166 24.9167 22.1166 23.3333 20.15 23.3333H18.3333C17.4166 23.3333 16.6666 24.0833 16.6666 25V32.4C16.6666 32.9833 17.1333 33.3333 17.7 33.3333C18.2666 33.3333 20.1333 33.3333 20.1333 33.3333C22.1 33.3333 23.7 31.75 23.7 29.8167V26.85H23.7166ZM31.7 24.3833C31.7 23.8 31.2333 23.35 30.6666 23.35H26.8166C26.2333 23.35 25.7833 23.8167 25.7833 24.3833V32.4C25.7833 32.9833 26.25 33.4333 26.8166 33.4333C27.3833 33.4333 27.85 32.9667 27.85 32.4V29.4H29.9166C30.5 29.4 30.95 28.9333 30.95 28.3667C30.95 27.8 30.4833 27.3333 29.9166 27.3333H27.85V25.4333H30.6666C31.25 25.4333 31.7 24.9667 31.7 24.4V24.3833Z" fill="url(#paint0_linear_463_5191)"/>
</g>
<defs>
<linearGradient id="paint0_linear_463_5191" x1="34.7766" y1="1.91781" x2="-5.63693" y2="21.1691" gradientUnits="userSpaceOnUse">
<stop stop-color="#123577"/>
<stop offset="1" stop-color="#518EE3"/>
</linearGradient>
<clipPath id="clip0_463_5191">
<rect width="40" height="40" fill="white"/>
</clipPath>
</defs>
</svg>
