<svg width="48" height="48" viewBox="0 0 48 48" fill="none" xmlns="http://www.w3.org/2000/svg">
<path d="M35.62 8.94C35.46 8.94 35.3 8.9 35.16 8.82C31.32 6.84 28 6 24.02 6C20.06 6 16.3 6.94 12.88 8.82C12.4 9.08 11.8 8.9 11.52 8.42C11.3953 8.18609 11.3673 7.91258 11.4421 7.65826C11.5169 7.40394 11.6885 7.18913 11.92 7.06C15.64 5.04 19.72 4 24.02 4C28.28 4 32 4.94 36.08 7.04C36.58 7.3 36.76 7.9 36.5 8.38C36.4209 8.54672 36.2964 8.68773 36.1407 8.7868C35.985 8.88587 35.8045 8.93897 35.62 8.94ZM7.00001 19.44C6.81565 19.4417 6.63442 19.3923 6.47642 19.2973C6.31842 19.2023 6.18982 19.0654 6.1049 18.9018C6.01997 18.7381 5.98203 18.5542 5.99529 18.3703C6.00855 18.1864 6.07249 18.0098 6.18001 17.86C8.16001 15.06 10.68 12.86 13.68 11.32C19.96 8.08 28 8.06 34.3 11.3C37.3 12.84 39.82 15.02 41.8 17.8C41.8767 17.9075 41.9314 18.0291 41.9609 18.1578C41.9904 18.2866 41.9941 18.4199 41.9718 18.55C41.9494 18.6802 41.9016 18.8046 41.8309 18.9162C41.7602 19.0278 41.6682 19.1242 41.56 19.2C41.1 19.52 40.48 19.42 40.16 18.96C38.4085 16.4808 36.0821 14.4631 33.38 13.08C27.64 10.14 20.3 10.14 14.58 13.1C11.86 14.5 9.58001 16.5 7.78001 19.02C7.62001 19.3 7.32001 19.44 7.00001 19.44ZM19.5 43.58C19.3689 43.5816 19.2388 43.5557 19.1183 43.5041C18.9977 43.4524 18.8893 43.3761 18.8 43.28C17.06 41.54 16.12 40.42 14.78 38C13.4 35.54 12.68 32.54 12.68 29.32C12.68 23.38 17.76 18.54 24 18.54C30.24 18.54 35.32 23.38 35.32 29.32C35.32 29.88 34.88 30.32 34.32 30.32C33.76 30.32 33.32 29.88 33.32 29.32C33.32 24.48 29.14 20.54 24 20.54C18.86 20.54 14.68 24.48 14.68 29.32C14.68 32.2 15.32 34.86 16.54 37.02C17.82 39.32 18.7 40.3 20.24 41.86C20.62 42.26 20.62 42.88 20.24 43.28C20.02 43.48 19.76 43.58 19.5 43.58ZM33.84 39.88C31.46 39.88 29.36 39.28 27.64 38.1C24.66 36.08 22.88 32.8 22.88 29.32C22.88 28.76 23.32 28.32 23.88 28.32C24.44 28.32 24.88 28.76 24.88 29.32C24.88 32.14 26.32 34.8 28.76 36.44C30.18 37.4 31.84 37.86 33.84 37.86C34.32 37.86 35.12 37.8 35.92 37.66C36.46 37.56 36.98 37.92 37.08 38.48C37.18 39.02 36.82 39.54 36.26 39.64C35.12 39.86 34.12 39.88 33.84 39.88ZM29.82 44C29.74 44 29.64 43.98 29.56 43.96C26.38 43.08 24.3 41.9 22.12 39.76C20.7386 38.396 19.6432 36.77 18.8979 34.9774C18.1527 33.1847 17.7727 31.2614 17.78 29.32C17.78 26.08 20.54 23.44 23.94 23.44C27.34 23.44 30.1 26.08 30.1 29.32C30.1 31.46 31.96 33.2 34.26 33.2C36.56 33.2 38.42 31.46 38.42 29.32C38.42 21.78 31.92 15.66 23.92 15.66C18.24 15.66 13.04 18.82 10.7 23.72C9.92001 25.34 9.52001 27.24 9.52001 29.32C9.52001 30.88 9.66001 33.34 10.86 36.54C11.06 37.06 10.8 37.64 10.28 37.82C9.76001 38.02 9.18001 37.74 9.00001 37.24C8.03629 34.7106 7.54154 32.0268 7.54001 29.32C7.54001 26.92 8.00001 24.74 8.90001 22.84C11.56 17.26 17.46 13.64 23.92 13.64C33.02 13.64 40.42 20.66 40.42 29.3C40.42 32.54 37.66 35.18 34.26 35.18C30.86 35.18 28.1 32.54 28.1 29.3C28.1 27.16 26.24 25.42 23.94 25.42C21.64 25.42 19.78 27.16 19.78 29.3C19.78 32.72 21.1 35.92 23.52 38.32C25.42 40.2 27.24 41.24 30.06 42.02C30.6 42.16 30.9 42.72 30.76 43.24C30.66 43.7 30.24 44 29.82 44Z" fill="white"/>
</svg>
