<svg width="25" height="25" viewBox="0 0 25 25" fill="none" xmlns="http://www.w3.org/2000/svg">
<g clip-path="url(#clip0_2_465)">
<path d="M22.5 13.1667C22.4123 13.1672 22.3253 13.1504 22.2441 13.1172C22.1629 13.084 22.089 13.0351 22.0267 12.9733L12.5 3.44001L2.97335 12.9733C2.84582 13.0826 2.68177 13.1396 2.51398 13.1331C2.3462 13.1267 2.18704 13.0571 2.06831 12.9384C1.94958 12.8197 1.88002 12.6605 1.87354 12.4927C1.86706 12.3249 1.92413 12.1609 2.03335 12.0333L12.0334 2.03334C12.1583 1.90917 12.3272 1.83948 12.5034 1.83948C12.6795 1.83948 12.8484 1.90917 12.9734 2.03334L22.9734 12.0333C23.0651 12.1269 23.1272 12.2455 23.1519 12.3742C23.1767 12.5029 23.1629 12.636 23.1124 12.7569C23.0619 12.8779 22.9769 12.9812 22.868 13.0541C22.7591 13.127 22.6311 13.1661 22.5 13.1667Z" fill="url(#paint0_linear_2_465)"/>
<path d="M12.5 5.69333L4.5 13.72V21.8333C4.5 22.187 4.64048 22.5261 4.89052 22.7761C5.14057 23.0262 5.47971 23.1667 5.83333 23.1667H10.5V16.5H14.5V23.1667H19.1667C19.5203 23.1667 19.8594 23.0262 20.1095 22.7761C20.3595 22.5261 20.5 22.187 20.5 21.8333V13.6733L12.5 5.69333Z" fill="url(#paint1_linear_2_465)"/>
</g>
<defs>
<linearGradient id="paint0_linear_2_465" x1="21.9567" y1="2.38256" x2="7.25654" y2="18.1772" gradientUnits="userSpaceOnUse">
<stop stop-color="#123577"/>
<stop offset="1" stop-color="#518EE3"/>
</linearGradient>
<linearGradient id="paint1_linear_2_465" x1="19.5928" y1="6.53109" x2="0.910891" y2="16.3098" gradientUnits="userSpaceOnUse">
<stop stop-color="#123577"/>
<stop offset="1" stop-color="#518EE3"/>
</linearGradient>
<clipPath id="clip0_2_465">
<rect width="24" height="24" fill="white" transform="translate(0.5 0.5)"/>
</clipPath>
</defs>
</svg>
