<svg width="25" height="25" viewBox="0 0 25 25" fill="none" xmlns="http://www.w3.org/2000/svg">
<g clip-path="url(#clip0_2_189)">
<path d="M22.9734 12.0266L12.9734 2.02663C12.8484 1.90246 12.6795 1.83276 12.5034 1.83276C12.3272 1.83276 12.1583 1.90246 12.0334 2.02663L2.03335 12.0266C1.92413 12.1542 1.86706 12.3182 1.87354 12.486C1.88002 12.6538 1.94958 12.8129 2.06831 12.9317C2.18704 13.0504 2.3462 13.12 2.51398 13.1264C2.68177 13.1329 2.84582 13.0758 2.97335 12.9666L12.5 3.43996L22.0267 12.9733C22.1542 13.0825 22.3183 13.1396 22.4861 13.1331C22.6538 13.1266 22.813 13.0571 22.9317 12.9383C23.0505 12.8196 23.12 12.6604 23.1265 12.4927C23.133 12.3249 23.0759 12.1608 22.9667 12.0333L22.9734 12.0266Z" fill="#6B7280"/>
<path d="M19.1667 21.8334H15.8333V15.1668H9.16667V21.8334H5.83333V12.5001L4.5 13.8334V21.8334C4.5 22.187 4.64048 22.5262 4.89052 22.7762C5.14057 23.0263 5.47971 23.1668 5.83333 23.1668H10.5V16.5001H14.5V23.1668H19.1667C19.5203 23.1668 19.8594 23.0263 20.1095 22.7762C20.3595 22.5262 20.5 22.187 20.5 21.8334V13.6734L19.1667 12.3401V21.8334Z" fill="#6B7280"/>
</g>
<defs>
<clipPath id="clip0_2_189">
<rect width="24" height="24" fill="white" transform="translate(0.5 0.5)"/>
</clipPath>
</defs>
</svg>
