<svg width="25" height="24" viewBox="0 0 25 24" fill="none" xmlns="http://www.w3.org/2000/svg">
<g clip-path="url(#clip0_2_478)">
<path fill-rule="evenodd" clip-rule="evenodd" d="M19.384 14.469C19.5119 14.2486 19.719 14.0854 19.9632 14.0126C20.2073 13.9397 20.4701 13.9629 20.6978 14.0772C20.9254 14.1916 21.1009 14.3885 21.1883 14.6279C21.2757 14.8672 21.2684 15.1308 21.168 15.365L21.116 15.469L20.781 16.049C20.9807 16.2835 21.1432 16.5473 21.263 16.831L21.329 17H22C22.2549 17.0003 22.5 17.0979 22.6854 17.2728C22.8707 17.4478 22.9822 17.687 22.9972 17.9414C23.0121 18.1958 22.9293 18.4464 22.7657 18.6418C22.6021 18.8373 22.3701 18.9629 22.117 18.993L22 19H21.329C21.2311 19.2774 21.093 19.5388 20.919 19.776L20.781 19.95L21.116 20.531C21.2446 20.752 21.2836 21.0138 21.2251 21.2627C21.1667 21.5116 21.0151 21.7286 20.8015 21.8692C20.588 22.0098 20.3287 22.0632 20.0769 22.0185C19.8252 21.9739 19.6001 21.8345 19.448 21.629L19.384 21.531L19.049 20.951C18.756 21.005 18.459 21.014 18.169 20.981L17.952 20.949L17.616 21.531C17.4881 21.7514 17.281 21.9146 17.0368 21.9874C16.7927 22.0603 16.5299 22.0371 16.3022 21.9228C16.0746 21.8084 15.8991 21.6115 15.8117 21.3721C15.7243 21.1328 15.7316 20.8692 15.832 20.635L15.884 20.531L16.219 19.95C16.0196 19.716 15.8571 19.453 15.737 19.17L15.671 19H15C14.7451 18.9997 14.5 18.9021 14.3146 18.7272C14.1293 18.5522 14.0178 18.313 14.0028 18.0586C13.9879 17.8042 14.0707 17.5536 14.2343 17.3582C14.3979 17.1627 14.6299 17.0371 14.883 17.007L15 17H15.672C15.7699 16.7226 15.908 16.4612 16.082 16.224L16.219 16.05L15.884 15.469C15.7554 15.248 15.7164 14.9862 15.7749 14.7373C15.8333 14.4884 15.9849 14.2714 16.1985 14.1308C16.412 13.9902 16.6713 13.9368 16.9231 13.9815C17.1748 14.0261 17.3999 14.1655 17.552 14.371L17.616 14.469L17.951 15.049C18.244 14.995 18.541 14.986 18.831 15.019L19.048 15.05L19.384 14.469ZM11.5 13C11.947 13 12.387 13.024 12.816 13.07C13.0798 13.098 13.3216 13.2296 13.4883 13.4359C13.655 13.6422 13.733 13.9062 13.705 14.17C13.677 14.4338 13.5454 14.6756 13.3391 14.8423C13.1328 15.009 12.8688 15.087 12.605 15.059C12.245 15.02 11.875 15 11.5 15C9.477 15 7.657 15.59 6.364 16.379C5.717 16.773 5.229 17.201 4.914 17.601C4.59 18.011 4.5 18.321 4.5 18.5C4.5 18.622 4.537 18.751 4.755 18.926C5.004 19.126 5.437 19.333 6.099 19.508C7.417 19.858 9.311 20 11.5 20L12.158 19.995C12.4232 19.9914 12.679 20.0933 12.8691 20.2783C13.0591 20.4634 13.1679 20.7163 13.1715 20.9815C13.1751 21.2467 13.0732 21.5025 12.8882 21.6926C12.7031 21.8826 12.4502 21.9914 12.185 21.995L11.5 22C9.271 22 7.165 21.86 5.587 21.442C4.802 21.234 4.063 20.936 3.503 20.486C2.91 20.01 2.5 19.345 2.5 18.5C2.5 17.713 2.858 16.977 3.344 16.361C3.838 15.736 4.521 15.161 5.322 14.671C6.925 13.695 9.105 13 11.5 13ZM18.5 17C18.2348 17 17.9804 17.1054 17.7929 17.2929C17.6054 17.4804 17.5 17.7348 17.5 18C17.5 18.2652 17.6054 18.5196 17.7929 18.7071C17.9804 18.8946 18.2348 19 18.5 19C18.7652 19 19.0196 18.8946 19.2071 18.7071C19.3946 18.5196 19.5 18.2652 19.5 18C19.5 17.7348 19.3946 17.4804 19.2071 17.2929C19.0196 17.1054 18.7652 17 18.5 17ZM11.5 2C12.8261 2 14.0979 2.52678 15.0355 3.46447C15.9732 4.40215 16.5 5.67392 16.5 7C16.5 8.32608 15.9732 9.59785 15.0355 10.5355C14.0979 11.4732 12.8261 12 11.5 12C10.1739 12 8.90215 11.4732 7.96447 10.5355C7.02678 9.59785 6.5 8.32608 6.5 7C6.5 5.67392 7.02678 4.40215 7.96447 3.46447C8.90215 2.52678 10.1739 2 11.5 2ZM11.5 4C11.106 4 10.7159 4.0776 10.3519 4.22836C9.98797 4.37913 9.65726 4.6001 9.37868 4.87868C9.1001 5.15726 8.87913 5.48797 8.72836 5.85195C8.5776 6.21593 8.5 6.60603 8.5 7C8.5 7.39397 8.5776 7.78407 8.72836 8.14805C8.87913 8.51203 9.1001 8.84274 9.37868 9.12132C9.65726 9.3999 9.98797 9.62087 10.3519 9.77164C10.7159 9.9224 11.106 10 11.5 10C12.2956 10 13.0587 9.68393 13.6213 9.12132C14.1839 8.55871 14.5 7.79565 14.5 7C14.5 6.20435 14.1839 5.44129 13.6213 4.87868C13.0587 4.31607 12.2956 4 11.5 4Z" fill="#6B7280"/>
</g>
<defs>
<clipPath id="clip0_2_478">
<rect width="24" height="24" fill="white" transform="translate(0.5)"/>
</clipPath>
</defs>
</svg>
