<svg width="52" height="52" viewBox="0 0 52 52" fill="none" xmlns="http://www.w3.org/2000/svg">
<path fill-rule="evenodd" clip-rule="evenodd" d="M26.8848 0H26.0567C24.7707 0 23.4847 0 22.192 0C11.6819 0.006655 2.07402 7.5867 0.511985 17.8687C-0.295965 23.1794 0.128209 28.6697 0.000283154 34.0802C0.000283154 34.1401 0.0743453 34.2 0.121476 34.2799H11.2106V33.0021C11.2106 29.5016 11.1971 25.9944 11.2106 22.4939C11.251 15.9121 16.1189 11.1205 22.7508 11.1138C26.2587 11.1138 29.7665 11.1138 33.2744 11.1138H34.5132C34.5603 10.8277 34.6142 10.648 34.6142 10.475C34.6142 7.04764 34.6142 3.62032 34.6142 0H33.2744C31.14 0 29.0124 0 26.8848 0Z" fill="url(#paint0_linear_1_3589)"/>
<path fill-rule="evenodd" clip-rule="evenodd" d="M17.2431 40.3692V51.4232C21.6127 51.4232 25.9016 51.4897 30.1837 51.4098C41.6836 51.2035 51.3722 41.9664 51.8907 30.6263C52.0859 26.3937 51.958 22.1478 51.9715 17.9086C51.9715 17.7023 51.8907 17.5026 51.8435 17.2897H40.714C40.714 17.8354 40.714 18.2413 40.714 18.6406C40.714 22.2543 40.7746 25.868 40.6803 29.4816C40.5188 35.6308 35.6239 40.2893 29.4027 40.3093C27.201 40.316 24.9994 40.3093 22.7977 40.3093C21.3434 40.3093 19.8891 40.3093 18.4348 40.3093C18.0375 40.3093 17.6403 40.3426 17.2363 40.3626L17.2431 40.3692Z" fill="url(#paint1_linear_1_3589)"/>
<path fill-rule="evenodd" clip-rule="evenodd" d="M40.7349 11.0937H51.898V0.0930176H40.7349V11.0937Z" fill="url(#paint2_linear_1_3589)"/>
<defs>
<linearGradient id="paint0_linear_1_3589" x1="-38.5389" y1="60.9331" x2="33.569" y2="-2.30832" gradientUnits="userSpaceOnUse">
<stop stop-color="#34A6D0"/>
<stop offset="0.51" stop-color="#1B85BC"/>
<stop offset="0.67" stop-color="#0069B4"/>
<stop offset="1"/>
</linearGradient>
<linearGradient id="paint1_linear_1_3589" x1="-17.4517" y1="82.6218" x2="54.8892" y2="19.6581" gradientUnits="userSpaceOnUse">
<stop stop-color="#34A6D0"/>
<stop offset="0.51" stop-color="#1B85BC"/>
<stop offset="0.67" stop-color="#0069B4"/>
<stop offset="1"/>
</linearGradient>
<linearGradient id="paint2_linear_1_3589" x1="28.9119" y1="20.4307" x2="52.2159" y2="0.0908696" gradientUnits="userSpaceOnUse">
<stop stop-color="#34A6D0"/>
<stop offset="0.51" stop-color="#1B85BC"/>
<stop offset="0.67" stop-color="#0069B4"/>
<stop offset="1"/>
</linearGradient>
</defs>
</svg>
