<svg width="32" height="32" viewBox="0 0 32 32" fill="none" xmlns="http://www.w3.org/2000/svg">
<path d="M20 9.33333H12M20 14.6667H12M20 20H14.6666M6.66663 4H25.3333V28L23.9573 26.8213C23.474 26.4071 22.8585 26.1794 22.222 26.1794C21.5854 26.1794 20.9699 26.4071 20.4866 26.8213L19.1106 28L17.736 26.8213C17.2526 26.4068 16.6368 26.1789 16 26.1789C15.3631 26.1789 14.7474 26.4068 14.264 26.8213L12.8893 28L11.5133 26.8213C11.03 26.4071 10.4145 26.1794 9.77796 26.1794C9.14145 26.1794 8.52593 26.4071 8.04263 26.8213L6.66663 28V4Z" stroke="#0065B0" stroke-width="1.5" stroke-linecap="round" stroke-linejoin="round"/>
</svg>
