<svg width="40" height="40" viewBox="0 0 40 40" fill="none" xmlns="http://www.w3.org/2000/svg">
<g clip-path="url(#clip0_463_5198)">
<path d="M0.000520379 19.9768C-0.01649 24.2508 3.4345 27.7293 7.70855 27.7463C9.67691 27.7541 11.5743 27.0116 13.0145 25.6698L24.547 30.8767C24.4669 31.3079 24.4229 31.745 24.4155 32.1835C24.402 36.487 27.8795 39.9866 32.1829 40.0002C36.4864 40.0139 39.986 36.5363 39.9997 32.2328C40.0133 27.9294 36.5357 24.4298 32.2323 24.4161C29.6611 24.408 27.2515 25.6687 25.7922 27.7855L14.9571 22.8932C15.7267 21.0349 15.7297 18.9475 14.9655 17.087L25.7856 12.1697C28.222 15.6935 33.0538 16.5749 36.5777 14.1385C40.1016 11.702 40.9829 6.87031 38.5464 3.34643C36.11 -0.177439 31.2782 -1.05886 27.7543 1.3776C25.6557 2.82863 24.4048 5.21874 24.4088 7.77014C24.4158 8.20929 24.4604 8.64695 24.542 9.07853L13.0395 14.3054C9.9231 11.3791 5.0245 11.5332 2.09818 14.6496C0.743826 16.092 -0.00681436 17.9982 0.000520379 19.9768Z" fill="url(#paint0_linear_463_5198)"/>
</g>
<defs>
<linearGradient id="paint0_linear_463_5198" x1="37.7317" y1="1.91805" x2="-7.11461" y2="27.553" gradientUnits="userSpaceOnUse">
<stop stop-color="#123577"/>
<stop offset="1" stop-color="#518EE3"/>
</linearGradient>
<clipPath id="clip0_463_5198">
<rect width="40" height="40" fill="white"/>
</clipPath>
</defs>
</svg>
