<svg width="25" height="24" viewBox="0 0 25 24" fill="none" xmlns="http://www.w3.org/2000/svg">
<path d="M2 7.125C2 6.22989 2.35558 5.37145 2.98851 4.73851C3.62145 4.10558 4.47989 3.75 5.375 3.75H19.625C20.5201 3.75 21.3786 4.10558 22.0115 4.73851C22.6444 5.37145 23 6.22989 23 7.125V16.875C23 17.7701 22.6444 18.6285 22.0115 19.2615C21.3786 19.8944 20.5201 20.25 19.625 20.25H5.375C4.47989 20.25 3.62145 19.8944 2.98851 19.2615C2.35558 18.6285 2 17.7701 2 16.875V7.125ZM5.375 5.25C4.87772 5.25 4.40081 5.44754 4.04917 5.79917C3.69754 6.15081 3.5 6.62772 3.5 7.125V8.25H21.5V7.125C21.5 6.62772 21.3025 6.15081 20.9508 5.79917C20.5992 5.44754 20.1223 5.25 19.625 5.25H5.375ZM3.5 16.875C3.5 17.3723 3.69754 17.8492 4.04917 18.2008C4.40081 18.5525 4.87772 18.75 5.375 18.75H19.625C20.1223 18.75 20.5992 18.5525 20.9508 18.2008C21.3025 17.8492 21.5 17.3723 21.5 16.875V9.75H3.5V16.875Z" fill="#6B7280"/>
<rect x="6" y="12.5" width="4" height="3" rx="0.5" stroke="#6B7280"/>
</svg>
